<svg xmlns="http://www.w3.org/2000/svg" xmlns:xlink="http://www.w3.org/1999/xlink" width="320" zoomAndPan="magnify" viewBox="0 0 240 239.999995" height="320" preserveAspectRatio="xMidYMid meet" version="1.0"><defs><g/><clipPath id="1a914184c5"><path d="M 19.5 0 L 240 0 L 240 240 L 19.5 240 Z M 19.5 0 " clip-rule="nonzero"/></clipPath><clipPath id="c6238dddfb"><path d="M 19.5 0 L 240 0 L 240 73 L 19.5 73 Z M 19.5 0 " clip-rule="nonzero"/></clipPath><clipPath id="6054922801"><path d="M 0 0 L 220.5 0 L 220.5 240 L 0 240 Z M 0 0 " clip-rule="nonzero"/></clipPath><clipPath id="71285bb12d"><path d="M 0 0 L 220.5 0 L 220.5 73 L 0 73 Z M 0 0 " clip-rule="nonzero"/></clipPath><clipPath id="0827db8211"><path d="M 9.75 0 L 230.25 0 L 230.25 240 L 9.75 240 Z M 9.75 0 " clip-rule="nonzero"/></clipPath><clipPath id="8bb5a56fb2"><path d="M 9.75 0 L 230.25 0 L 230.25 73 L 9.75 73 Z M 9.75 0 " clip-rule="nonzero"/></clipPath></defs><g clip-path="url(#1a914184c5)"><path fill="#02204b" d="M 30.460938 0.0546875 L 228.898438 0.0546875 C 229.617188 0.0546875 230.332031 0.125 231.035156 0.265625 C 231.742188 0.402344 232.425781 0.613281 233.09375 0.886719 C 233.757812 1.164062 234.390625 1.5 234.988281 1.902344 C 235.585938 2.300781 236.140625 2.753906 236.648438 3.265625 C 237.15625 3.773438 237.613281 4.328125 238.011719 4.925781 C 238.410156 5.523438 238.75 6.15625 239.023438 6.820312 C 239.300781 7.484375 239.507812 8.171875 239.648438 8.875 C 239.789062 9.582031 239.859375 10.296875 239.859375 11.015625 L 239.859375 228.984375 C 239.859375 229.703125 239.789062 230.417969 239.648438 231.125 C 239.507812 231.828125 239.300781 232.515625 239.023438 233.179688 C 238.75 233.84375 238.410156 234.476562 238.011719 235.074219 C 237.613281 235.671875 237.15625 236.226562 236.648438 236.734375 C 236.140625 237.246094 235.585938 237.699219 234.988281 238.097656 C 234.390625 238.5 233.757812 238.835938 233.09375 239.113281 C 232.425781 239.386719 231.742188 239.597656 231.035156 239.734375 C 230.332031 239.875 229.617188 239.945312 228.898438 239.945312 L 30.460938 239.945312 C 29.742188 239.945312 29.027344 239.875 28.324219 239.734375 C 27.617188 239.597656 26.933594 239.386719 26.265625 239.113281 C 25.601562 238.835938 24.96875 238.5 24.371094 238.097656 C 23.773438 237.699219 23.21875 237.246094 22.710938 236.734375 C 22.203125 236.226562 21.746094 235.671875 21.347656 235.074219 C 20.949219 234.476562 20.609375 233.84375 20.335938 233.179688 C 20.058594 232.515625 19.851562 231.828125 19.710938 231.125 C 19.570312 230.417969 19.5 229.703125 19.5 228.984375 L 19.5 11.015625 C 19.5 10.296875 19.570312 9.582031 19.710938 8.875 C 19.851562 8.171875 20.058594 7.484375 20.335938 6.820312 C 20.609375 6.15625 20.949219 5.523438 21.347656 4.925781 C 21.746094 4.328125 22.203125 3.773438 22.710938 3.265625 C 23.21875 2.753906 23.773438 2.300781 24.371094 1.902344 C 24.96875 1.5 25.601562 1.164062 26.265625 0.886719 C 26.933594 0.613281 27.617188 0.402344 28.324219 0.265625 C 29.027344 0.125 29.742188 0.0546875 30.460938 0.0546875 Z M 30.460938 0.0546875 " fill-opacity="1" fill-rule="evenodd"/></g><path fill="#d9d9d9" d="M 49.152344 92.523438 L 108.316406 92.523438 L 108.316406 143.679688 L 49.152344 143.679688 Z M 49.152344 92.523438 " fill-opacity="1" fill-rule="evenodd"/><path fill="#d9d9d9" d="M 151.320312 92.523438 L 210.488281 92.523438 L 210.488281 143.679688 L 151.320312 143.679688 Z M 151.320312 92.523438 " fill-opacity="1" fill-rule="evenodd"/><path fill="#d9d9d9" d="M 49.152344 168.976562 L 108.316406 168.976562 L 108.316406 220.132812 L 49.152344 220.132812 Z M 49.152344 168.976562 " fill-opacity="1" fill-rule="evenodd"/><path fill="#838383" d="M 151.320312 168.976562 L 210.488281 168.976562 L 210.488281 220.132812 L 151.320312 220.132812 Z M 151.320312 168.976562 " fill-opacity="1" fill-rule="evenodd"/><path fill="#afafaf" d="M 83.585938 105.03125 C 83.585938 102.363281 81.335938 100.113281 78.664062 100.113281 C 75.996094 100.113281 73.746094 102.363281 73.746094 105.03125 L 73.746094 131.171875 C 73.746094 133.84375 75.996094 136.089844 78.664062 136.089844 C 81.335938 136.089844 83.585938 133.84375 83.585938 131.171875 Z M 83.585938 105.03125 " fill-opacity="1" fill-rule="nonzero"/><path fill="#afafaf" d="M 91.734375 123.023438 C 94.40625 123.023438 96.652344 120.773438 96.652344 118.101562 C 96.652344 115.433594 94.40625 113.183594 91.734375 113.183594 L 65.59375 113.183594 C 62.925781 113.183594 60.675781 115.433594 60.675781 118.101562 C 60.675781 120.773438 62.925781 123.023438 65.59375 123.023438 Z M 91.734375 123.023438 " fill-opacity="1" fill-rule="nonzero"/><path fill="#afafaf" d="M 193.90625 123.023438 C 196.714844 123.023438 198.824219 120.773438 198.824219 118.101562 C 198.824219 115.433594 196.714844 113.183594 193.90625 113.183594 L 167.765625 113.183594 C 165.09375 113.183594 162.847656 115.433594 162.847656 118.101562 C 162.847656 120.773438 165.09375 123.023438 167.765625 123.023438 Z M 193.90625 123.023438 " fill-opacity="1" fill-rule="nonzero"/><path fill="#d9d9d9" d="M 193.90625 193.148438 C 196.714844 193.148438 198.824219 190.898438 198.824219 188.230469 C 198.824219 185.558594 196.714844 183.3125 193.90625 183.3125 L 167.765625 183.3125 C 165.09375 183.3125 162.847656 185.558594 162.847656 188.230469 C 162.847656 190.898438 165.09375 193.148438 167.765625 193.148438 Z M 193.90625 193.148438 " fill-opacity="1" fill-rule="nonzero"/><path fill="#d9d9d9" d="M 193.90625 205.796875 C 196.714844 205.796875 198.824219 203.546875 198.824219 200.878906 C 198.824219 198.207031 196.714844 195.960938 193.90625 195.960938 L 167.765625 195.960938 C 165.09375 195.960938 162.847656 198.207031 162.847656 200.878906 C 162.847656 203.546875 165.09375 205.796875 167.765625 205.796875 Z M 193.90625 205.796875 " fill-opacity="1" fill-rule="nonzero"/><path fill="#afafaf" d="M 91.3125 188.792969 C 93.28125 186.824219 93.28125 183.734375 91.3125 181.90625 C 89.488281 179.9375 86.394531 179.9375 84.425781 181.90625 L 66.015625 200.316406 C 64.050781 202.285156 64.050781 205.375 66.015625 207.203125 C 67.84375 209.167969 70.9375 209.167969 72.902344 207.203125 Z M 91.3125 188.792969 " fill-opacity="1" fill-rule="nonzero"/><path fill="#afafaf" d="M 84.425781 207.203125 C 86.394531 209.167969 89.488281 209.167969 91.3125 207.203125 C 93.28125 205.375 93.28125 202.285156 91.3125 200.316406 L 72.902344 181.90625 C 70.9375 179.9375 67.84375 179.9375 66.015625 181.90625 C 64.050781 183.734375 64.050781 186.824219 66.015625 188.792969 Z M 84.425781 207.203125 " fill-opacity="1" fill-rule="nonzero"/><g clip-path="url(#c6238dddfb)"><path fill="#ff751f" d="M 229.039062 0.0546875 L 30.601562 0.0546875 C 24.558594 0.0546875 19.5 4.972656 19.5 11.015625 L 19.5 72.710938 L 240 72.710938 L 240 11.015625 C 240 4.972656 235.082031 0.0546875 229.039062 0.0546875 Z M 229.039062 0.0546875 " fill-opacity="1" fill-rule="evenodd"/></g><g clip-path="url(#6054922801)"><path fill="#02204b" d="M 10.960938 0.0546875 L 209.398438 0.0546875 C 210.117188 0.0546875 210.832031 0.125 211.535156 0.265625 C 212.242188 0.402344 212.925781 0.613281 213.59375 0.886719 C 214.257812 1.164062 214.890625 1.5 215.488281 1.902344 C 216.085938 2.300781 216.640625 2.753906 217.148438 3.265625 C 217.65625 3.773438 218.113281 4.328125 218.511719 4.925781 C 218.910156 5.523438 219.25 6.15625 219.523438 6.820312 C 219.800781 7.484375 220.007812 8.171875 220.148438 8.875 C 220.289062 9.582031 220.359375 10.296875 220.359375 11.015625 L 220.359375 228.984375 C 220.359375 229.703125 220.289062 230.417969 220.148438 231.125 C 220.007812 231.828125 219.800781 232.515625 219.523438 233.179688 C 219.25 233.84375 218.910156 234.476562 218.511719 235.074219 C 218.113281 235.671875 217.65625 236.226562 217.148438 236.734375 C 216.640625 237.246094 216.085938 237.699219 215.488281 238.097656 C 214.890625 238.5 214.257812 238.835938 213.59375 239.113281 C 212.925781 239.386719 212.242188 239.597656 211.535156 239.734375 C 210.832031 239.875 210.117188 239.945312 209.398438 239.945312 L 10.960938 239.945312 C 10.242188 239.945312 9.527344 239.875 8.824219 239.734375 C 8.117188 239.597656 7.433594 239.386719 6.765625 239.113281 C 6.101562 238.835938 5.46875 238.5 4.871094 238.097656 C 4.273438 237.699219 3.71875 237.246094 3.210938 236.734375 C 2.703125 236.226562 2.246094 235.671875 1.847656 235.074219 C 1.449219 234.476562 1.109375 233.84375 0.835938 233.179688 C 0.558594 232.515625 0.351562 231.828125 0.210938 231.125 C 0.0703125 230.417969 0 229.703125 0 228.984375 L 0 11.015625 C 0 10.296875 0.0703125 9.582031 0.210938 8.875 C 0.351562 8.171875 0.558594 7.484375 0.835938 6.820312 C 1.109375 6.15625 1.449219 5.523438 1.847656 4.925781 C 2.246094 4.328125 2.703125 3.773438 3.210938 3.265625 C 3.71875 2.753906 4.273438 2.300781 4.871094 1.902344 C 5.46875 1.5 6.101562 1.164062 6.765625 0.886719 C 7.433594 0.613281 8.117188 0.402344 8.824219 0.265625 C 9.527344 0.125 10.242188 0.0546875 10.960938 0.0546875 Z M 10.960938 0.0546875 " fill-opacity="1" fill-rule="evenodd"/></g><path fill="#d9d9d9" d="M 29.652344 92.523438 L 88.816406 92.523438 L 88.816406 143.679688 L 29.652344 143.679688 Z M 29.652344 92.523438 " fill-opacity="1" fill-rule="evenodd"/><path fill="#d9d9d9" d="M 131.820312 92.523438 L 190.988281 92.523438 L 190.988281 143.679688 L 131.820312 143.679688 Z M 131.820312 92.523438 " fill-opacity="1" fill-rule="evenodd"/><path fill="#d9d9d9" d="M 29.652344 168.976562 L 88.816406 168.976562 L 88.816406 220.132812 L 29.652344 220.132812 Z M 29.652344 168.976562 " fill-opacity="1" fill-rule="evenodd"/><path fill="#838383" d="M 131.820312 168.976562 L 190.988281 168.976562 L 190.988281 220.132812 L 131.820312 220.132812 Z M 131.820312 168.976562 " fill-opacity="1" fill-rule="evenodd"/><path fill="#afafaf" d="M 64.085938 105.03125 C 64.085938 102.363281 61.835938 100.113281 59.164062 100.113281 C 56.496094 100.113281 54.246094 102.363281 54.246094 105.03125 L 54.246094 131.171875 C 54.246094 133.84375 56.496094 136.089844 59.164062 136.089844 C 61.835938 136.089844 64.085938 133.84375 64.085938 131.171875 Z M 64.085938 105.03125 " fill-opacity="1" fill-rule="nonzero"/><path fill="#afafaf" d="M 72.234375 123.023438 C 74.90625 123.023438 77.152344 120.773438 77.152344 118.101562 C 77.152344 115.433594 74.90625 113.183594 72.234375 113.183594 L 46.09375 113.183594 C 43.425781 113.183594 41.175781 115.433594 41.175781 118.101562 C 41.175781 120.773438 43.425781 123.023438 46.09375 123.023438 Z M 72.234375 123.023438 " fill-opacity="1" fill-rule="nonzero"/><path fill="#afafaf" d="M 174.40625 123.023438 C 177.214844 123.023438 179.324219 120.773438 179.324219 118.101562 C 179.324219 115.433594 177.214844 113.183594 174.40625 113.183594 L 148.265625 113.183594 C 145.59375 113.183594 143.347656 115.433594 143.347656 118.101562 C 143.347656 120.773438 145.59375 123.023438 148.265625 123.023438 Z M 174.40625 123.023438 " fill-opacity="1" fill-rule="nonzero"/><path fill="#d9d9d9" d="M 174.40625 193.148438 C 177.214844 193.148438 179.324219 190.898438 179.324219 188.230469 C 179.324219 185.558594 177.214844 183.3125 174.40625 183.3125 L 148.265625 183.3125 C 145.59375 183.3125 143.347656 185.558594 143.347656 188.230469 C 143.347656 190.898438 145.59375 193.148438 148.265625 193.148438 Z M 174.40625 193.148438 " fill-opacity="1" fill-rule="nonzero"/><path fill="#d9d9d9" d="M 174.40625 205.796875 C 177.214844 205.796875 179.324219 203.546875 179.324219 200.878906 C 179.324219 198.207031 177.214844 195.960938 174.40625 195.960938 L 148.265625 195.960938 C 145.59375 195.960938 143.347656 198.207031 143.347656 200.878906 C 143.347656 203.546875 145.59375 205.796875 148.265625 205.796875 Z M 174.40625 205.796875 " fill-opacity="1" fill-rule="nonzero"/><path fill="#afafaf" d="M 71.8125 188.792969 C 73.78125 186.824219 73.78125 183.734375 71.8125 181.90625 C 69.988281 179.9375 66.894531 179.9375 64.925781 181.90625 L 46.515625 200.316406 C 44.550781 202.285156 44.550781 205.375 46.515625 207.203125 C 48.34375 209.167969 51.4375 209.167969 53.402344 207.203125 Z M 71.8125 188.792969 " fill-opacity="1" fill-rule="nonzero"/><path fill="#afafaf" d="M 64.925781 207.203125 C 66.894531 209.167969 69.988281 209.167969 71.8125 207.203125 C 73.78125 205.375 73.78125 202.285156 71.8125 200.316406 L 53.402344 181.90625 C 51.4375 179.9375 48.34375 179.9375 46.515625 181.90625 C 44.550781 183.734375 44.550781 186.824219 46.515625 188.792969 Z M 64.925781 207.203125 " fill-opacity="1" fill-rule="nonzero"/><g clip-path="url(#71285bb12d)"><path fill="#ff751f" d="M 209.539062 0.0546875 L 11.101562 0.0546875 C 5.058594 0.0546875 0 4.972656 0 11.015625 L 0 72.710938 L 220.5 72.710938 L 220.5 11.015625 C 220.5 4.972656 215.582031 0.0546875 209.539062 0.0546875 Z M 209.539062 0.0546875 " fill-opacity="1" fill-rule="evenodd"/></g><g clip-path="url(#0827db8211)"><path fill="#02204b" d="M 20.710938 0.0546875 L 219.148438 0.0546875 C 219.867188 0.0546875 220.582031 0.125 221.285156 0.265625 C 221.992188 0.402344 222.675781 0.613281 223.34375 0.886719 C 224.007812 1.164062 224.640625 1.5 225.238281 1.902344 C 225.835938 2.300781 226.390625 2.753906 226.898438 3.265625 C 227.40625 3.773438 227.863281 4.328125 228.261719 4.925781 C 228.660156 5.523438 229 6.15625 229.273438 6.820312 C 229.550781 7.484375 229.757812 8.171875 229.898438 8.875 C 230.039062 9.582031 230.109375 10.296875 230.109375 11.015625 L 230.109375 228.984375 C 230.109375 229.703125 230.039062 230.417969 229.898438 231.125 C 229.757812 231.828125 229.550781 232.515625 229.273438 233.179688 C 229 233.84375 228.660156 234.476562 228.261719 235.074219 C 227.863281 235.671875 227.40625 236.226562 226.898438 236.734375 C 226.390625 237.246094 225.835938 237.699219 225.238281 238.097656 C 224.640625 238.5 224.007812 238.835938 223.34375 239.113281 C 222.675781 239.386719 221.992188 239.597656 221.285156 239.734375 C 220.582031 239.875 219.867188 239.945312 219.148438 239.945312 L 20.710938 239.945312 C 19.992188 239.945312 19.277344 239.875 18.574219 239.734375 C 17.867188 239.597656 17.183594 239.386719 16.515625 239.113281 C 15.851562 238.835938 15.21875 238.5 14.621094 238.097656 C 14.023438 237.699219 13.46875 237.246094 12.960938 236.734375 C 12.453125 236.226562 11.996094 235.671875 11.597656 235.074219 C 11.199219 234.476562 10.859375 233.84375 10.585938 233.179688 C 10.308594 232.515625 10.101562 231.828125 9.960938 231.125 C 9.820312 230.417969 9.75 229.703125 9.75 228.984375 L 9.75 11.015625 C 9.75 10.296875 9.820312 9.582031 9.960938 8.875 C 10.101562 8.171875 10.308594 7.484375 10.585938 6.820312 C 10.859375 6.15625 11.199219 5.523438 11.597656 4.925781 C 11.996094 4.328125 12.453125 3.773438 12.960938 3.265625 C 13.46875 2.753906 14.023438 2.300781 14.621094 1.902344 C 15.21875 1.5 15.851562 1.164062 16.515625 0.886719 C 17.183594 0.613281 17.867188 0.402344 18.574219 0.265625 C 19.277344 0.125 19.992188 0.0546875 20.710938 0.0546875 Z M 20.710938 0.0546875 " fill-opacity="1" fill-rule="evenodd"/></g><path fill="#d9d9d9" d="M 39.402344 92.523438 L 98.566406 92.523438 L 98.566406 143.679688 L 39.402344 143.679688 Z M 39.402344 92.523438 " fill-opacity="1" fill-rule="evenodd"/><path fill="#d9d9d9" d="M 141.570312 92.523438 L 200.738281 92.523438 L 200.738281 143.679688 L 141.570312 143.679688 Z M 141.570312 92.523438 " fill-opacity="1" fill-rule="evenodd"/><path fill="#d9d9d9" d="M 39.402344 168.976562 L 98.566406 168.976562 L 98.566406 220.132812 L 39.402344 220.132812 Z M 39.402344 168.976562 " fill-opacity="1" fill-rule="evenodd"/><path fill="#838383" d="M 141.570312 168.976562 L 200.738281 168.976562 L 200.738281 220.132812 L 141.570312 220.132812 Z M 141.570312 168.976562 " fill-opacity="1" fill-rule="evenodd"/><path fill="#737373" d="M 73.835938 105.03125 C 73.835938 102.363281 71.585938 100.113281 68.914062 100.113281 C 66.246094 100.113281 63.996094 102.363281 63.996094 105.03125 L 63.996094 131.171875 C 63.996094 133.84375 66.246094 136.089844 68.914062 136.089844 C 71.585938 136.089844 73.835938 133.84375 73.835938 131.171875 Z M 73.835938 105.03125 " fill-opacity="1" fill-rule="nonzero"/><path fill="#737373" d="M 81.984375 123.023438 C 84.65625 123.023438 86.902344 120.773438 86.902344 118.101562 C 86.902344 115.433594 84.65625 113.183594 81.984375 113.183594 L 55.84375 113.183594 C 53.175781 113.183594 50.925781 115.433594 50.925781 118.101562 C 50.925781 120.773438 53.175781 123.023438 55.84375 123.023438 Z M 81.984375 123.023438 " fill-opacity="1" fill-rule="nonzero"/><path fill="#737373" d="M 184.15625 123.023438 C 186.964844 123.023438 189.074219 120.773438 189.074219 118.101562 C 189.074219 115.433594 186.964844 113.183594 184.15625 113.183594 L 158.015625 113.183594 C 155.34375 113.183594 153.097656 115.433594 153.097656 118.101562 C 153.097656 120.773438 155.34375 123.023438 158.015625 123.023438 Z M 184.15625 123.023438 " fill-opacity="1" fill-rule="nonzero"/><path fill="#d9d9d9" d="M 184.15625 193.148438 C 186.964844 193.148438 189.074219 190.898438 189.074219 188.230469 C 189.074219 185.558594 186.964844 183.3125 184.15625 183.3125 L 158.015625 183.3125 C 155.34375 183.3125 153.097656 185.558594 153.097656 188.230469 C 153.097656 190.898438 155.34375 193.148438 158.015625 193.148438 Z M 184.15625 193.148438 " fill-opacity="1" fill-rule="nonzero"/><path fill="#d9d9d9" d="M 184.15625 205.796875 C 186.964844 205.796875 189.074219 203.546875 189.074219 200.878906 C 189.074219 198.207031 186.964844 195.960938 184.15625 195.960938 L 158.015625 195.960938 C 155.34375 195.960938 153.097656 198.207031 153.097656 200.878906 C 153.097656 203.546875 155.34375 205.796875 158.015625 205.796875 Z M 184.15625 205.796875 " fill-opacity="1" fill-rule="nonzero"/><path fill="#737373" d="M 81.5625 188.792969 C 83.53125 186.824219 83.53125 183.734375 81.5625 181.90625 C 79.738281 179.9375 76.644531 179.9375 74.675781 181.90625 L 56.265625 200.316406 C 54.300781 202.285156 54.300781 205.375 56.265625 207.203125 C 58.09375 209.167969 61.1875 209.167969 63.152344 207.203125 Z M 81.5625 188.792969 " fill-opacity="1" fill-rule="nonzero"/><path fill="#737373" d="M 74.675781 207.203125 C 76.644531 209.167969 79.738281 209.167969 81.5625 207.203125 C 83.53125 205.375 83.53125 202.285156 81.5625 200.316406 L 63.152344 181.90625 C 61.1875 179.9375 58.09375 179.9375 56.265625 181.90625 C 54.300781 183.734375 54.300781 186.824219 56.265625 188.792969 Z M 74.675781 207.203125 " fill-opacity="1" fill-rule="nonzero"/><g clip-path="url(#8bb5a56fb2)"><path fill="#ff751f" d="M 219.289062 0.0546875 L 20.851562 0.0546875 C 14.808594 0.0546875 9.75 4.972656 9.75 11.015625 L 9.75 72.710938 L 230.25 72.710938 L 230.25 11.015625 C 230.25 4.972656 225.332031 0.0546875 219.289062 0.0546875 Z M 219.289062 0.0546875 " fill-opacity="1" fill-rule="evenodd"/></g><g fill="#ffffff" fill-opacity="1"><g transform="translate(32.69532, 60.537177)"><g><path d="M 4.0625 0 L 4.0625 -42.125 L 13.421875 -42.125 L 13.421875 0 Z M 11.21875 0 L 11.21875 -8.109375 L 34.296875 -8.109375 L 34.296875 0 Z M 11.21875 -17.59375 L 11.21875 -25.40625 L 32.21875 -25.40625 L 32.21875 -17.59375 Z M 11.21875 -34.0625 L 11.21875 -42.125 L 34 -42.125 L 34 -34.0625 Z M 11.21875 -34.0625 "/></g></g></g><g fill="#ffffff" fill-opacity="1"><g transform="translate(68.603559, 60.537177)"><g><path d="M 24.046875 0.65625 C 20.898438 0.65625 17.984375 0.109375 15.296875 -0.984375 C 12.617188 -2.078125 10.273438 -3.617188 8.265625 -5.609375 C 6.253906 -7.597656 4.691406 -9.914062 3.578125 -12.5625 C 2.460938 -15.207031 1.90625 -18.0625 1.90625 -21.125 C 1.90625 -24.1875 2.460938 -27.035156 3.578125 -29.671875 C 4.691406 -32.316406 6.242188 -34.613281 8.234375 -36.5625 C 10.222656 -38.519531 12.554688 -40.046875 15.234375 -41.140625 C 17.921875 -42.234375 20.835938 -42.78125 23.984375 -42.78125 C 27.328125 -42.78125 30.300781 -42.238281 32.90625 -41.15625 C 35.507812 -40.082031 37.785156 -38.613281 39.734375 -36.75 L 33.46875 -30.421875 C 32.351562 -31.617188 31.007812 -32.554688 29.4375 -33.234375 C 27.863281 -33.910156 26.046875 -34.25 23.984375 -34.25 C 22.148438 -34.25 20.46875 -33.9375 18.9375 -33.3125 C 17.40625 -32.695312 16.09375 -31.8125 15 -30.65625 C 13.90625 -29.507812 13.050781 -28.117188 12.4375 -26.484375 C 11.820312 -24.859375 11.515625 -23.070312 11.515625 -21.125 C 11.515625 -19.132812 11.820312 -17.320312 12.4375 -15.6875 C 13.050781 -14.0625 13.90625 -12.671875 15 -11.515625 C 16.09375 -10.359375 17.40625 -9.460938 18.9375 -8.828125 C 20.46875 -8.191406 22.148438 -7.875 23.984375 -7.875 C 26.128906 -7.875 27.992188 -8.210938 29.578125 -8.890625 C 31.171875 -9.566406 32.546875 -10.5 33.703125 -11.6875 L 40.03125 -5.375 C 38 -3.5 35.679688 -2.023438 33.078125 -0.953125 C 30.472656 0.117188 27.460938 0.65625 24.046875 0.65625 Z M 24.046875 0.65625 "/></g></g></g><g fill="#ffffff" fill-opacity="1"><g transform="translate(108.030959, 60.537177)"><g><path d="M 24.15625 0.71875 C 20.976562 0.71875 18.046875 0.160156 15.359375 -0.953125 C 12.671875 -2.066406 10.3125 -3.617188 8.28125 -5.609375 C 6.257812 -7.597656 4.691406 -9.914062 3.578125 -12.5625 C 2.460938 -15.207031 1.90625 -18.0625 1.90625 -21.125 C 1.90625 -24.21875 2.460938 -27.078125 3.578125 -29.703125 C 4.691406 -32.328125 6.242188 -34.625 8.234375 -36.59375 C 10.222656 -38.5625 12.554688 -40.09375 15.234375 -41.1875 C 17.921875 -42.28125 20.859375 -42.828125 24.046875 -42.828125 C 27.179688 -42.828125 30.09375 -42.28125 32.78125 -41.1875 C 35.46875 -40.09375 37.8125 -38.5625 39.8125 -36.59375 C 41.820312 -34.625 43.382812 -32.316406 44.5 -29.671875 C 45.613281 -27.035156 46.171875 -24.164062 46.171875 -21.0625 C 46.171875 -18 45.613281 -15.144531 44.5 -12.5 C 43.382812 -9.851562 41.832031 -7.546875 39.84375 -5.578125 C 37.863281 -3.609375 35.53125 -2.066406 32.84375 -0.953125 C 30.15625 0.160156 27.257812 0.71875 24.15625 0.71875 Z M 24.046875 -7.8125 C 26.546875 -7.8125 28.738281 -8.367188 30.625 -9.484375 C 32.519531 -10.597656 33.984375 -12.160156 35.015625 -14.171875 C 36.046875 -16.179688 36.5625 -18.5 36.5625 -21.125 C 36.5625 -23.101562 36.265625 -24.898438 35.671875 -26.515625 C 35.078125 -28.128906 34.222656 -29.519531 33.109375 -30.6875 C 31.992188 -31.863281 30.671875 -32.757812 29.140625 -33.375 C 27.609375 -33.988281 25.910156 -34.296875 24.046875 -34.296875 C 21.535156 -34.296875 19.332031 -33.75 17.4375 -32.65625 C 15.550781 -31.5625 14.09375 -30.03125 13.0625 -28.0625 C 12.03125 -26.09375 11.515625 -23.78125 11.515625 -21.125 C 11.515625 -19.132812 11.8125 -17.320312 12.40625 -15.6875 C 13 -14.0625 13.84375 -12.660156 14.9375 -11.484375 C 16.03125 -10.304688 17.351562 -9.398438 18.90625 -8.765625 C 20.457031 -8.128906 22.171875 -7.8125 24.046875 -7.8125 Z M 24.046875 -7.8125 "/></g></g></g><g fill="#ffffff" fill-opacity="1"><g transform="translate(156.107563, 60.537177)"><g><path d="M 4.0625 0 L 4.0625 -42.125 L 10.734375 -42.125 L 27.328125 -16.28125 L 23.921875 -16.28125 L 40.453125 -42.125 L 47.1875 -42.125 L 47.1875 0 L 37.828125 0 L 37.828125 -26.3125 L 39.5 -25.890625 L 28.6875 -9.0625 L 22.484375 -9.0625 L 11.75 -25.890625 L 13.359375 -26.3125 L 13.359375 0 Z M 4.0625 0 "/></g></g></g></svg>