<svg xmlns="http://www.w3.org/2000/svg" xmlns:xlink="http://www.w3.org/1999/xlink" width="320" zoomAndPan="magnify" viewBox="0 0 240 239.999995" height="320" preserveAspectRatio="xMidYMid meet" version="1.0"><defs><g/><clipPath id="544e97379b"><path d="M 35.191406 18.734375 L 221.191406 18.734375 L 221.191406 221.234375 L 35.191406 221.234375 Z M 35.191406 18.734375 " clip-rule="nonzero"/></clipPath><clipPath id="09220054f9"><path d="M 35.191406 18.734375 L 221.191406 18.734375 L 221.191406 81 L 35.191406 81 Z M 35.191406 18.734375 " clip-rule="nonzero"/></clipPath><clipPath id="d7a3dcce78"><path d="M 18.734375 18.734375 L 204.734375 18.734375 L 204.734375 221.234375 L 18.734375 221.234375 Z M 18.734375 18.734375 " clip-rule="nonzero"/></clipPath><clipPath id="60a3deb8f7"><path d="M 18.734375 18.734375 L 204.734375 18.734375 L 204.734375 81 L 18.734375 81 Z M 18.734375 18.734375 " clip-rule="nonzero"/></clipPath><clipPath id="4b4b9457ae"><path d="M 26.960938 18.734375 L 212.960938 18.734375 L 212.960938 221.234375 L 26.960938 221.234375 Z M 26.960938 18.734375 " clip-rule="nonzero"/></clipPath><clipPath id="745822b404"><path d="M 26.960938 18.734375 L 212.960938 18.734375 L 212.960938 81 L 26.960938 81 Z M 26.960938 18.734375 " clip-rule="nonzero"/></clipPath><clipPath id="6ae273d74e"><rect x="0" width="148" y="0" height="66"/></clipPath></defs><rect x="-24" width="288" fill="#ffffff" y="-23.999999" height="287.999994" fill-opacity="1"/><rect x="-24" width="288" fill="#ffffff" y="-23.999999" height="287.999994" fill-opacity="1"/><g clip-path="url(#544e97379b)"><path fill="#02204b" d="M 44.441406 18.777344 L 211.890625 18.777344 C 212.5 18.777344 213.101562 18.835938 213.695312 18.957031 C 214.292969 19.074219 214.871094 19.25 215.429688 19.480469 C 215.992188 19.714844 216.527344 20 217.03125 20.335938 C 217.535156 20.675781 218.003906 21.058594 218.433594 21.488281 C 218.863281 21.917969 219.246094 22.382812 219.582031 22.890625 C 219.921875 23.394531 220.207031 23.925781 220.4375 24.488281 C 220.671875 25.050781 220.84375 25.628906 220.964844 26.222656 C 221.082031 26.820312 221.140625 27.421875 221.140625 28.027344 L 221.140625 211.964844 C 221.140625 212.570312 221.082031 213.171875 220.964844 213.769531 C 220.84375 214.363281 220.671875 214.941406 220.4375 215.503906 C 220.207031 216.066406 219.921875 216.597656 219.582031 217.101562 C 219.246094 217.609375 218.863281 218.074219 218.433594 218.503906 C 218.003906 218.933594 217.535156 219.316406 217.03125 219.65625 C 216.527344 219.992188 215.992188 220.277344 215.429688 220.511719 C 214.871094 220.742188 214.292969 220.917969 213.695312 221.035156 C 213.101562 221.15625 212.5 221.214844 211.890625 221.214844 L 44.441406 221.214844 C 43.832031 221.214844 43.230469 221.15625 42.636719 221.035156 C 42.039062 220.917969 41.460938 220.742188 40.902344 220.511719 C 40.339844 220.277344 39.804688 219.992188 39.300781 219.65625 C 38.796875 219.316406 38.328125 218.933594 37.898438 218.503906 C 37.46875 218.074219 37.085938 217.609375 36.75 217.101562 C 36.410156 216.597656 36.125 216.066406 35.894531 215.503906 C 35.660156 214.941406 35.488281 214.363281 35.367188 213.769531 C 35.25 213.171875 35.191406 212.570312 35.191406 211.964844 L 35.191406 28.027344 C 35.191406 27.421875 35.25 26.820312 35.367188 26.222656 C 35.488281 25.628906 35.660156 25.050781 35.894531 24.488281 C 36.125 23.925781 36.410156 23.394531 36.75 22.890625 C 37.085938 22.382812 37.46875 21.917969 37.898438 21.488281 C 38.328125 21.058594 38.796875 20.675781 39.300781 20.335938 C 39.804688 20 40.339844 19.714844 40.902344 19.480469 C 41.460938 19.25 42.039062 19.074219 42.636719 18.957031 C 43.230469 18.835938 43.832031 18.777344 44.441406 18.777344 Z M 44.441406 18.777344 " fill-opacity="1" fill-rule="evenodd"/></g><path fill="#d9d9d9" d="M 60.214844 96.8125 L 110.140625 96.8125 L 110.140625 139.980469 L 60.214844 139.980469 Z M 60.214844 96.8125 " fill-opacity="1" fill-rule="evenodd"/><path fill="#d9d9d9" d="M 146.429688 96.8125 L 196.355469 96.8125 L 196.355469 139.980469 L 146.429688 139.980469 Z M 146.429688 96.8125 " fill-opacity="1" fill-rule="evenodd"/><path fill="#d9d9d9" d="M 60.214844 161.324219 L 110.140625 161.324219 L 110.140625 204.492188 L 60.214844 204.492188 Z M 60.214844 161.324219 " fill-opacity="1" fill-rule="evenodd"/><path fill="#838383" d="M 146.429688 161.324219 L 196.355469 161.324219 L 196.355469 204.492188 L 146.429688 204.492188 Z M 146.429688 161.324219 " fill-opacity="1" fill-rule="evenodd"/><path fill="#afafaf" d="M 89.269531 107.367188 C 89.269531 105.113281 87.371094 103.214844 85.117188 103.214844 C 82.863281 103.214844 80.964844 105.113281 80.964844 107.367188 L 80.964844 129.425781 C 80.964844 131.675781 82.863281 133.574219 85.117188 133.574219 C 87.371094 133.574219 89.269531 131.675781 89.269531 129.425781 Z M 89.269531 107.367188 " fill-opacity="1" fill-rule="nonzero"/><path fill="#afafaf" d="M 96.144531 122.546875 C 98.398438 122.546875 100.296875 120.648438 100.296875 118.394531 C 100.296875 116.140625 98.398438 114.246094 96.144531 114.246094 L 74.089844 114.246094 C 71.835938 114.246094 69.9375 116.140625 69.9375 118.394531 C 69.9375 120.648438 71.835938 122.546875 74.089844 122.546875 Z M 96.144531 122.546875 " fill-opacity="1" fill-rule="nonzero"/><path fill="#afafaf" d="M 182.363281 122.546875 C 184.734375 122.546875 186.511719 120.648438 186.511719 118.394531 C 186.511719 116.140625 184.734375 114.246094 182.363281 114.246094 L 160.304688 114.246094 C 158.050781 114.246094 156.152344 116.140625 156.152344 118.394531 C 156.152344 120.648438 158.050781 122.546875 160.304688 122.546875 Z M 182.363281 122.546875 " fill-opacity="1" fill-rule="nonzero"/><path fill="#d9d9d9" d="M 182.363281 181.722656 C 184.734375 181.722656 186.511719 179.824219 186.511719 177.574219 C 186.511719 175.320312 184.734375 173.421875 182.363281 173.421875 L 160.304688 173.421875 C 158.050781 173.421875 156.152344 175.320312 156.152344 177.574219 C 156.152344 179.824219 158.050781 181.722656 160.304688 181.722656 Z M 182.363281 181.722656 " fill-opacity="1" fill-rule="nonzero"/><path fill="#d9d9d9" d="M 182.363281 192.394531 C 184.734375 192.394531 186.511719 190.5 186.511719 188.246094 C 186.511719 185.992188 184.734375 184.09375 182.363281 184.09375 L 160.304688 184.09375 C 158.050781 184.09375 156.152344 185.992188 156.152344 188.246094 C 156.152344 190.5 158.050781 192.394531 160.304688 192.394531 Z M 182.363281 192.394531 " fill-opacity="1" fill-rule="nonzero"/><path fill="#afafaf" d="M 95.789062 178.046875 C 97.449219 176.386719 97.449219 173.777344 95.789062 172.234375 C 94.25 170.574219 91.640625 170.574219 89.980469 172.234375 L 74.445312 187.769531 C 72.785156 189.433594 72.785156 192.039062 74.445312 193.582031 C 75.984375 195.242188 78.59375 195.242188 80.253906 193.582031 Z M 95.789062 178.046875 " fill-opacity="1" fill-rule="nonzero"/><path fill="#afafaf" d="M 89.980469 193.582031 C 91.640625 195.242188 94.25 195.242188 95.789062 193.582031 C 97.449219 192.039062 97.449219 189.433594 95.789062 187.769531 L 80.253906 172.234375 C 78.59375 170.574219 75.984375 170.574219 74.445312 172.234375 C 72.785156 173.777344 72.785156 176.386719 74.445312 178.046875 Z M 89.980469 193.582031 " fill-opacity="1" fill-rule="nonzero"/><g clip-path="url(#09220054f9)"><path fill="#ff751f" d="M 212.011719 18.777344 L 44.558594 18.777344 C 39.460938 18.777344 35.191406 22.929688 35.191406 28.027344 L 35.191406 80.089844 L 221.261719 80.089844 L 221.261719 28.027344 C 221.261719 22.929688 217.109375 18.777344 212.011719 18.777344 Z M 212.011719 18.777344 " fill-opacity="1" fill-rule="evenodd"/></g><g clip-path="url(#d7a3dcce78)"><path fill="#02204b" d="M 27.984375 18.777344 L 195.4375 18.777344 C 196.042969 18.777344 196.644531 18.835938 197.242188 18.957031 C 197.835938 19.074219 198.414062 19.25 198.976562 19.480469 C 199.535156 19.714844 200.070312 20 200.574219 20.335938 C 201.082031 20.675781 201.546875 21.058594 201.976562 21.488281 C 202.40625 21.917969 202.789062 22.382812 203.128906 22.890625 C 203.464844 23.394531 203.75 23.925781 203.980469 24.488281 C 204.214844 25.050781 204.390625 25.628906 204.507812 26.222656 C 204.628906 26.820312 204.6875 27.421875 204.6875 28.027344 L 204.6875 211.964844 C 204.6875 212.570312 204.628906 213.171875 204.507812 213.769531 C 204.390625 214.363281 204.214844 214.941406 203.980469 215.503906 C 203.75 216.066406 203.464844 216.597656 203.128906 217.101562 C 202.789062 217.609375 202.40625 218.074219 201.976562 218.503906 C 201.546875 218.933594 201.082031 219.316406 200.574219 219.65625 C 200.070312 219.992188 199.535156 220.277344 198.976562 220.511719 C 198.414062 220.742188 197.835938 220.917969 197.242188 221.035156 C 196.644531 221.15625 196.042969 221.214844 195.4375 221.214844 L 27.984375 221.214844 C 27.378906 221.214844 26.777344 221.15625 26.179688 221.035156 C 25.585938 220.917969 25.007812 220.742188 24.445312 220.511719 C 23.882812 220.277344 23.351562 219.992188 22.84375 219.65625 C 22.339844 219.316406 21.875 218.933594 21.445312 218.503906 C 21.015625 218.074219 20.632812 217.609375 20.292969 217.101562 C 19.957031 216.597656 19.671875 216.066406 19.4375 215.503906 C 19.207031 214.941406 19.03125 214.363281 18.914062 213.769531 C 18.792969 213.171875 18.734375 212.570312 18.734375 211.964844 L 18.734375 28.027344 C 18.734375 27.421875 18.792969 26.820312 18.914062 26.222656 C 19.03125 25.628906 19.207031 25.050781 19.4375 24.488281 C 19.671875 23.925781 19.957031 23.394531 20.292969 22.890625 C 20.632812 22.382812 21.015625 21.917969 21.445312 21.488281 C 21.875 21.058594 22.339844 20.675781 22.84375 20.335938 C 23.351562 20 23.882812 19.714844 24.445312 19.480469 C 25.007812 19.25 25.585938 19.074219 26.179688 18.957031 C 26.777344 18.835938 27.378906 18.777344 27.984375 18.777344 Z M 27.984375 18.777344 " fill-opacity="1" fill-rule="evenodd"/></g><path fill="#d9d9d9" d="M 43.757812 96.8125 L 93.683594 96.8125 L 93.683594 139.980469 L 43.757812 139.980469 Z M 43.757812 96.8125 " fill-opacity="1" fill-rule="evenodd"/><path fill="#d9d9d9" d="M 129.972656 96.8125 L 179.902344 96.8125 L 179.902344 139.980469 L 129.972656 139.980469 Z M 129.972656 96.8125 " fill-opacity="1" fill-rule="evenodd"/><path fill="#d9d9d9" d="M 43.757812 161.324219 L 93.683594 161.324219 L 93.683594 204.492188 L 43.757812 204.492188 Z M 43.757812 161.324219 " fill-opacity="1" fill-rule="evenodd"/><path fill="#838383" d="M 129.972656 161.324219 L 179.902344 161.324219 L 179.902344 204.492188 L 129.972656 204.492188 Z M 129.972656 161.324219 " fill-opacity="1" fill-rule="evenodd"/><path fill="#afafaf" d="M 72.8125 107.367188 C 72.8125 105.113281 70.914062 103.214844 68.660156 103.214844 C 66.410156 103.214844 64.511719 105.113281 64.511719 107.367188 L 64.511719 129.425781 C 64.511719 131.675781 66.410156 133.574219 68.660156 133.574219 C 70.914062 133.574219 72.8125 131.675781 72.8125 129.425781 Z M 72.8125 107.367188 " fill-opacity="1" fill-rule="nonzero"/><path fill="#afafaf" d="M 79.691406 122.546875 C 81.945312 122.546875 83.839844 120.648438 83.839844 118.394531 C 83.839844 116.140625 81.945312 114.246094 79.691406 114.246094 L 57.632812 114.246094 C 55.378906 114.246094 53.480469 116.140625 53.480469 118.394531 C 53.480469 120.648438 55.378906 122.546875 57.632812 122.546875 Z M 79.691406 122.546875 " fill-opacity="1" fill-rule="nonzero"/><path fill="#afafaf" d="M 165.90625 122.546875 C 168.277344 122.546875 170.058594 120.648438 170.058594 118.394531 C 170.058594 116.140625 168.277344 114.246094 165.90625 114.246094 L 143.847656 114.246094 C 141.59375 114.246094 139.699219 116.140625 139.699219 118.394531 C 139.699219 120.648438 141.59375 122.546875 143.847656 122.546875 Z M 165.90625 122.546875 " fill-opacity="1" fill-rule="nonzero"/><path fill="#d9d9d9" d="M 165.90625 181.722656 C 168.277344 181.722656 170.058594 179.824219 170.058594 177.574219 C 170.058594 175.320312 168.277344 173.421875 165.90625 173.421875 L 143.847656 173.421875 C 141.59375 173.421875 139.699219 175.320312 139.699219 177.574219 C 139.699219 179.824219 141.59375 181.722656 143.847656 181.722656 Z M 165.90625 181.722656 " fill-opacity="1" fill-rule="nonzero"/><path fill="#d9d9d9" d="M 165.90625 192.394531 C 168.277344 192.394531 170.058594 190.5 170.058594 188.246094 C 170.058594 185.992188 168.277344 184.09375 165.90625 184.09375 L 143.847656 184.09375 C 141.59375 184.09375 139.699219 185.992188 139.699219 188.246094 C 139.699219 190.5 141.59375 192.394531 143.847656 192.394531 Z M 165.90625 192.394531 " fill-opacity="1" fill-rule="nonzero"/><path fill="#afafaf" d="M 79.335938 178.046875 C 80.996094 176.386719 80.996094 173.777344 79.335938 172.234375 C 77.792969 170.574219 75.183594 170.574219 73.523438 172.234375 L 57.988281 187.769531 C 56.328125 189.433594 56.328125 192.039062 57.988281 193.582031 C 59.53125 195.242188 62.140625 195.242188 63.800781 193.582031 Z M 79.335938 178.046875 " fill-opacity="1" fill-rule="nonzero"/><path fill="#afafaf" d="M 73.523438 193.582031 C 75.183594 195.242188 77.792969 195.242188 79.335938 193.582031 C 80.996094 192.039062 80.996094 189.433594 79.335938 187.769531 L 63.800781 172.234375 C 62.140625 170.574219 59.53125 170.574219 57.988281 172.234375 C 56.328125 173.777344 56.328125 176.386719 57.988281 178.046875 Z M 73.523438 193.582031 " fill-opacity="1" fill-rule="nonzero"/><g clip-path="url(#60a3deb8f7)"><path fill="#ff751f" d="M 195.554688 18.777344 L 28.101562 18.777344 C 23.003906 18.777344 18.734375 22.929688 18.734375 28.027344 L 18.734375 80.089844 L 204.804688 80.089844 L 204.804688 28.027344 C 204.804688 22.929688 200.652344 18.777344 195.554688 18.777344 Z M 195.554688 18.777344 " fill-opacity="1" fill-rule="evenodd"/></g><g clip-path="url(#4b4b9457ae)"><path fill="#02204b" d="M 36.210938 18.777344 L 203.664062 18.777344 C 204.269531 18.777344 204.871094 18.835938 205.46875 18.957031 C 206.0625 19.074219 206.644531 19.25 207.203125 19.480469 C 207.765625 19.714844 208.296875 20 208.804688 20.335938 C 209.308594 20.675781 209.773438 21.058594 210.203125 21.488281 C 210.632812 21.917969 211.019531 22.382812 211.355469 22.890625 C 211.691406 23.394531 211.976562 23.925781 212.210938 24.488281 C 212.441406 25.050781 212.617188 25.628906 212.734375 26.222656 C 212.855469 26.820312 212.914062 27.421875 212.914062 28.027344 L 212.914062 211.964844 C 212.914062 212.570312 212.855469 213.171875 212.738281 213.769531 C 212.617188 214.363281 212.441406 214.941406 212.210938 215.503906 C 211.976562 216.066406 211.691406 216.597656 211.355469 217.101562 C 211.019531 217.609375 210.632812 218.074219 210.203125 218.503906 C 209.773438 218.933594 209.308594 219.316406 208.804688 219.65625 C 208.296875 219.992188 207.765625 220.277344 207.203125 220.511719 C 206.644531 220.742188 206.0625 220.917969 205.46875 221.035156 C 204.871094 221.15625 204.269531 221.214844 203.664062 221.214844 L 36.210938 221.214844 C 35.605469 221.214844 35.003906 221.15625 34.40625 221.035156 C 33.8125 220.917969 33.234375 220.742188 32.671875 220.511719 C 32.113281 220.277344 31.578125 219.992188 31.074219 219.65625 C 30.570312 219.316406 30.101562 218.933594 29.671875 218.503906 C 29.242188 218.074219 28.859375 217.609375 28.519531 217.101562 C 28.183594 216.597656 27.898438 216.066406 27.667969 215.503906 C 27.433594 214.941406 27.257812 214.363281 27.140625 213.769531 C 27.023438 213.171875 26.960938 212.570312 26.960938 211.964844 L 26.960938 28.027344 C 26.960938 27.421875 27.023438 26.820312 27.140625 26.222656 C 27.257812 25.628906 27.433594 25.050781 27.667969 24.488281 C 27.898438 23.925781 28.183594 23.394531 28.519531 22.890625 C 28.859375 22.382812 29.242188 21.917969 29.671875 21.488281 C 30.101562 21.058594 30.570312 20.675781 31.074219 20.335938 C 31.578125 20 32.113281 19.714844 32.671875 19.480469 C 33.234375 19.25 33.8125 19.074219 34.40625 18.957031 C 35.003906 18.835938 35.605469 18.777344 36.210938 18.777344 Z M 36.210938 18.777344 " fill-opacity="1" fill-rule="evenodd"/></g><path fill="#d9d9d9" d="M 51.984375 96.8125 L 101.914062 96.8125 L 101.914062 139.980469 L 51.984375 139.980469 Z M 51.984375 96.8125 " fill-opacity="1" fill-rule="evenodd"/><path fill="#d9d9d9" d="M 138.203125 96.8125 L 188.128906 96.8125 L 188.128906 139.980469 L 138.203125 139.980469 Z M 138.203125 96.8125 " fill-opacity="1" fill-rule="evenodd"/><path fill="#d9d9d9" d="M 51.984375 161.324219 L 101.914062 161.324219 L 101.914062 204.492188 L 51.984375 204.492188 Z M 51.984375 161.324219 " fill-opacity="1" fill-rule="evenodd"/><path fill="#838383" d="M 138.203125 161.324219 L 188.128906 161.324219 L 188.128906 204.492188 L 138.203125 204.492188 Z M 138.203125 161.324219 " fill-opacity="1" fill-rule="evenodd"/><path fill="#737373" d="M 81.039062 107.367188 C 81.039062 105.113281 79.144531 103.214844 76.890625 103.214844 C 74.636719 103.214844 72.738281 105.113281 72.738281 107.367188 L 72.738281 129.425781 C 72.738281 131.675781 74.636719 133.574219 76.890625 133.574219 C 79.144531 133.574219 81.039062 131.675781 81.039062 129.425781 Z M 81.039062 107.367188 " fill-opacity="1" fill-rule="nonzero"/><path fill="#737373" d="M 87.917969 122.546875 C 90.171875 122.546875 92.070312 120.648438 92.070312 118.394531 C 92.070312 116.140625 90.171875 114.246094 87.917969 114.246094 L 65.859375 114.246094 C 63.605469 114.246094 61.710938 116.140625 61.710938 118.394531 C 61.710938 120.648438 63.605469 122.546875 65.859375 122.546875 Z M 87.917969 122.546875 " fill-opacity="1" fill-rule="nonzero"/><path fill="#737373" d="M 174.132812 122.546875 C 176.507812 122.546875 178.285156 120.648438 178.285156 118.394531 C 178.285156 116.140625 176.507812 114.246094 174.132812 114.246094 L 152.078125 114.246094 C 149.824219 114.246094 147.925781 116.140625 147.925781 118.394531 C 147.925781 120.648438 149.824219 122.546875 152.078125 122.546875 Z M 174.132812 122.546875 " fill-opacity="1" fill-rule="nonzero"/><path fill="#d9d9d9" d="M 174.132812 181.722656 C 176.507812 181.722656 178.285156 179.824219 178.285156 177.574219 C 178.285156 175.320312 176.507812 173.421875 174.132812 173.421875 L 152.078125 173.421875 C 149.824219 173.421875 147.925781 175.320312 147.925781 177.574219 C 147.925781 179.824219 149.824219 181.722656 152.078125 181.722656 Z M 174.132812 181.722656 " fill-opacity="1" fill-rule="nonzero"/><path fill="#d9d9d9" d="M 174.132812 192.394531 C 176.507812 192.394531 178.285156 190.5 178.285156 188.246094 C 178.285156 185.992188 176.507812 184.09375 174.132812 184.09375 L 152.078125 184.09375 C 149.824219 184.09375 147.925781 185.992188 147.925781 188.246094 C 147.925781 190.5 149.824219 192.394531 152.078125 192.394531 Z M 174.132812 192.394531 " fill-opacity="1" fill-rule="nonzero"/><path fill="#737373" d="M 87.5625 178.046875 C 89.222656 176.386719 89.222656 173.777344 87.5625 172.234375 C 86.019531 170.574219 83.410156 170.574219 81.75 172.234375 L 66.214844 187.769531 C 64.554688 189.433594 64.554688 192.039062 66.214844 193.582031 C 67.757812 195.242188 70.367188 195.242188 72.027344 193.582031 Z M 87.5625 178.046875 " fill-opacity="1" fill-rule="nonzero"/><path fill="#737373" d="M 81.75 193.582031 C 83.410156 195.242188 86.019531 195.242188 87.5625 193.582031 C 89.222656 192.039062 89.222656 189.433594 87.5625 187.769531 L 72.027344 172.234375 C 70.367188 170.574219 67.757812 170.574219 66.214844 172.234375 C 64.554688 173.777344 64.554688 176.386719 66.214844 178.046875 Z M 81.75 193.582031 " fill-opacity="1" fill-rule="nonzero"/><g clip-path="url(#745822b404)"><path fill="#ff751f" d="M 203.78125 18.777344 L 36.332031 18.777344 C 31.230469 18.777344 26.960938 22.929688 26.960938 28.027344 L 26.960938 80.089844 L 213.03125 80.089844 L 213.03125 28.027344 C 213.03125 22.929688 208.882812 18.777344 203.78125 18.777344 Z M 203.78125 18.777344 " fill-opacity="1" fill-rule="evenodd"/></g><g transform="matrix(1, 0, 0, 1, 46, 18)"><g clip-path="url(#6ae273d74e)"><g fill="#ffffff" fill-opacity="1"><g transform="translate(0.325427, 51.820579)"><g><path d="M 3.421875 0 L 3.421875 -35.546875 L 11.328125 -35.546875 L 11.328125 0 Z M 9.46875 0 L 9.46875 -6.84375 L 28.953125 -6.84375 L 28.953125 0 Z M 9.46875 -14.84375 L 9.46875 -21.453125 L 27.1875 -21.453125 L 27.1875 -14.84375 Z M 9.46875 -28.75 L 9.46875 -35.546875 L 28.703125 -35.546875 L 28.703125 -28.75 Z M 9.46875 -28.75 "/></g></g></g><g fill="#ffffff" fill-opacity="1"><g transform="translate(30.627628, 51.820579)"><g><path d="M 20.28125 0.546875 C 17.632812 0.546875 15.175781 0.0859375 12.90625 -0.828125 C 10.644531 -1.753906 8.664062 -3.054688 6.96875 -4.734375 C 5.28125 -6.410156 3.960938 -8.363281 3.015625 -10.59375 C 2.078125 -12.820312 1.609375 -15.234375 1.609375 -17.828125 C 1.609375 -20.410156 2.078125 -22.816406 3.015625 -25.046875 C 3.960938 -27.273438 5.273438 -29.210938 6.953125 -30.859375 C 8.628906 -32.503906 10.597656 -33.785156 12.859375 -34.703125 C 15.128906 -35.628906 17.585938 -36.09375 20.234375 -36.09375 C 23.054688 -36.09375 25.566406 -35.640625 27.765625 -34.734375 C 29.960938 -33.828125 31.882812 -32.585938 33.53125 -31.015625 L 28.25 -25.671875 C 27.300781 -26.679688 26.164062 -27.46875 24.84375 -28.03125 C 23.519531 -28.601562 21.984375 -28.890625 20.234375 -28.890625 C 18.691406 -28.890625 17.273438 -28.628906 15.984375 -28.109375 C 14.691406 -27.597656 13.582031 -26.851562 12.65625 -25.875 C 11.738281 -24.90625 11.019531 -23.726562 10.5 -22.34375 C 9.976562 -20.96875 9.71875 -19.460938 9.71875 -17.828125 C 9.71875 -16.140625 9.976562 -14.609375 10.5 -13.234375 C 11.019531 -11.859375 11.738281 -10.679688 12.65625 -9.703125 C 13.582031 -8.734375 14.691406 -7.976562 15.984375 -7.4375 C 17.273438 -6.90625 18.691406 -6.640625 20.234375 -6.640625 C 22.046875 -6.640625 23.625 -6.925781 24.96875 -7.5 C 26.3125 -8.070312 27.46875 -8.863281 28.4375 -9.875 L 33.78125 -4.53125 C 32.070312 -2.957031 30.117188 -1.71875 27.921875 -0.8125 C 25.722656 0.09375 23.175781 0.546875 20.28125 0.546875 Z M 20.28125 0.546875 "/></g></g></g><g fill="#ffffff" fill-opacity="1"><g transform="translate(63.899574, 51.820579)"><g><path d="M 20.390625 0.609375 C 17.703125 0.609375 15.222656 0.140625 12.953125 -0.796875 C 10.691406 -1.742188 8.707031 -3.054688 7 -4.734375 C 5.289062 -6.410156 3.960938 -8.363281 3.015625 -10.59375 C 2.078125 -12.820312 1.609375 -15.234375 1.609375 -17.828125 C 1.609375 -20.441406 2.078125 -22.851562 3.015625 -25.0625 C 3.960938 -27.28125 5.273438 -29.21875 6.953125 -30.875 C 8.628906 -32.539062 10.597656 -33.832031 12.859375 -34.75 C 15.128906 -35.675781 17.601562 -36.140625 20.28125 -36.140625 C 22.9375 -36.140625 25.394531 -35.675781 27.65625 -34.75 C 29.925781 -33.832031 31.90625 -32.539062 33.59375 -30.875 C 35.289062 -29.21875 36.609375 -27.273438 37.546875 -25.046875 C 38.492188 -22.816406 38.96875 -20.390625 38.96875 -17.765625 C 38.96875 -15.179688 38.492188 -12.773438 37.546875 -10.546875 C 36.609375 -8.316406 35.300781 -6.367188 33.625 -4.703125 C 31.945312 -3.046875 29.972656 -1.742188 27.703125 -0.796875 C 25.441406 0.140625 23.003906 0.609375 20.390625 0.609375 Z M 20.28125 -6.59375 C 22.394531 -6.59375 24.25 -7.0625 25.84375 -8 C 27.445312 -8.945312 28.679688 -10.265625 29.546875 -11.953125 C 30.421875 -13.648438 30.859375 -15.609375 30.859375 -17.828125 C 30.859375 -19.503906 30.601562 -21.019531 30.09375 -22.375 C 29.59375 -23.738281 28.875 -24.914062 27.9375 -25.90625 C 27 -26.894531 25.882812 -27.648438 24.59375 -28.171875 C 23.300781 -28.691406 21.863281 -28.953125 20.28125 -28.953125 C 18.164062 -28.953125 16.3125 -28.488281 14.71875 -27.5625 C 13.125 -26.632812 11.890625 -25.335938 11.015625 -23.671875 C 10.148438 -22.015625 9.71875 -20.066406 9.71875 -17.828125 C 9.71875 -16.140625 9.96875 -14.609375 10.46875 -13.234375 C 10.976562 -11.859375 11.691406 -10.675781 12.609375 -9.6875 C 13.535156 -8.695312 14.648438 -7.929688 15.953125 -7.390625 C 17.265625 -6.859375 18.707031 -6.59375 20.28125 -6.59375 Z M 20.28125 -6.59375 "/></g></g></g><g fill="#ffffff" fill-opacity="1"><g transform="translate(104.4704, 51.820579)"><g><path d="M 3.421875 0 L 3.421875 -35.546875 L 9.0625 -35.546875 L 23.0625 -13.75 L 20.1875 -13.75 L 34.140625 -35.546875 L 39.828125 -35.546875 L 39.828125 0 L 31.921875 0 L 31.921875 -22.203125 L 33.328125 -21.84375 L 24.21875 -7.65625 L 18.984375 -7.65625 L 9.921875 -21.84375 L 11.28125 -22.203125 L 11.28125 0 Z M 3.421875 0 "/></g></g></g></g></g></svg>